<?xml version="1.0" encoding="UTF-8" standalone="no"?>
<!DOCTYPE svg PUBLIC "-//W3C//DTD SVG 1.1//EN" "http://www.w3.org/Graphics/SVG/1.1/DTD/svg11.dtd">
<svg version="1.1" xmlns="http://www.w3.org/2000/svg" xmlns:xlink="http://www.w3.org/1999/xlink" preserveAspectRatio="xMidYMid meet" viewBox="198.4720082177709 139.55469953775037 267.8433487416539 354.8166409861326" width="263.84" height="350.82"><defs><path d="M199.91 241.05C201.31 246.31 202.09 249.23 202.25 249.82C206.34 265.09 214.97 280.3 225.27 290.24C225.54 290.5 226.88 291.82 229.29 294.18C245.91 281.69 255.14 274.74 256.99 273.35C272.27 261.88 285.42 252.09 286.23 251.57C287.61 250.77 290.39 252.67 316.78 272.48C318.72 273.93 328.41 281.22 345.86 294.33C349.07 290.95 350.84 289.08 351.2 288.7C360.19 279.2 367.35 267.21 371.15 255.3C375.17 242.73 375.1 243.97 375.39 190.4C375.54 162.99 375.39 140.55 375.1 140.55C374.81 140.55 364.65 150.42 352.59 162.48C351.13 163.94 343.82 171.25 330.66 184.41L287.54 184.41L244.42 184.41C231.26 171.25 223.96 163.94 222.49 162.48C210.44 150.42 200.28 140.55 199.98 140.55C199.69 140.55 199.47 163.14 199.62 190.77C199.66 197.47 199.75 214.23 199.91 241.05ZM265.54 239.29C265.47 243.39 264.01 245.87 260.13 248.5C253.41 253.11 243.76 247.7 243.76 239.22C243.76 233.23 248.73 228.26 254.65 228.26C256.63 228.26 258.6 228.84 260.13 229.87C264.15 232.64 265.62 235.2 265.54 239.29ZM331.32 239.22C331.32 243.31 329.86 245.87 325.91 248.5C319.19 253.11 309.54 247.7 309.54 239.22C309.54 233.23 314.51 228.26 320.43 228.26C322.4 228.26 324.38 228.84 325.91 229.87C329.86 232.57 331.32 235.13 331.32 239.22Z" id="a5O9t7LHpR"></path><path d="M423.56 291.84C430.13 305.22 446.36 315.89 460.25 315.96C460.45 315.96 461.47 315.96 463.32 315.96C463.32 288.77 463.32 273.67 463.32 270.65C463.32 219.93 463.17 218.54 458.35 208.53C451.91 195.22 435.69 184.41 422.24 184.41C422.01 184.41 420.84 184.41 418.73 184.41L418.73 230.23C418.78 264.83 420.39 285.36 423.56 291.84Z" id="a129X9oGcc"></path><path d="M287.54 283.07C287.98 283.07 290.76 280.59 293.75 277.59C294.11 277.23 295.92 275.4 299.16 272.11L287.54 272.11L275.92 272.11L281.33 277.59C285.18 281.25 287.25 283.07 287.54 283.07Z" id="a1MFgqAvRj"></path><path d="M374.88 403.67C372.38 403.67 370.99 403.67 370.71 403.67C356.17 403.67 335.85 410.9 323.06 420.55C311.37 429.32 300.11 443.21 294.85 455.34C291.71 462.58 288.71 472.95 288.13 478.51C288.1 478.8 287.95 480.23 287.69 482.82C286.72 478.04 286.19 475.38 286.08 474.85C281.55 452.71 271.32 435.97 253.56 421.87C240.47 411.34 219.72 403.67 204.66 403.67C204.32 403.67 202.59 403.67 199.47 403.67L199.47 447.52L199.47 491.37L331.39 491.37L463.32 491.37C463.32 463.83 463.32 448.53 463.32 445.47C463.32 418.21 463.02 397.09 462.58 393.44C460.1 373.34 451.55 355.94 437.08 341.47C421.88 326.27 402.87 317.5 382.41 316.18C381.91 316.15 379.4 316.01 374.88 315.74L374.88 359.67L374.88 403.67ZM405.14 425.01C390.89 437.58 382.34 451.61 377.37 470.54C377.25 470.98 376.69 473.17 375.68 477.12L375.61 440.36L375.61 403.67C398.77 403.71 411.63 403.74 414.2 403.74C449.87 403.81 452.28 403.89 446.94 404.84C431.81 407.61 416.83 414.85 405.14 425.01Z" id="bHakK3iwA"></path></defs><g><g><use xlink:href="#a5O9t7LHpR" opacity="1" fill="#000000" fill-opacity="1"></use><g><use xlink:href="#a5O9t7LHpR" opacity="1" fill-opacity="0" stroke="#000000" stroke-width="1" stroke-opacity="0"></use></g></g><g><use xlink:href="#a129X9oGcc" opacity="1" fill="#000000" fill-opacity="1"></use><g><use xlink:href="#a129X9oGcc" opacity="1" fill-opacity="0" stroke="#000000" stroke-width="1" stroke-opacity="0"></use></g></g><g><use xlink:href="#a1MFgqAvRj" opacity="1" fill="#000000" fill-opacity="1"></use><g><use xlink:href="#a1MFgqAvRj" opacity="1" fill-opacity="0" stroke="#000000" stroke-width="1" stroke-opacity="0"></use></g></g><g><use xlink:href="#bHakK3iwA" opacity="1" fill="#000000" fill-opacity="1"></use><g><use xlink:href="#bHakK3iwA" opacity="1" fill-opacity="0" stroke="#000000" stroke-width="1" stroke-opacity="0"></use></g></g></g></svg>